<?xml version="1.0" encoding="utf-8"?>
<!-- Generator: Adobe Illustrator 22.0.1, SVG Export Plug-In . SVG Version: 6.00 Build 0)  -->
<svg version="1.1" id="Layer_2" xmlns="http://www.w3.org/2000/svg" x="0px"
     y="0px"
     viewBox="0 0 1024 1024" style="enable-background:new 0 0 1024 1024;" xml:space="preserve">
<style type="text/css">
	.st0{fill:#FFFFFF;}
</style>
    <g>
	<path class="st0" d="M647.3,1019.7c-100.9-34.3-200.7-69.2-299.5-104.9C247.7,683.5,150,451.6,54.8,218.9l8.5-15
		c5.7-4.3,12.8-6.1,21.3-5.3c100.9,34.3,201.4,69.2,301.6,104.9l86.3,198.1c54-163.5,109.1-326.5,165.2-489.3
		c6.4-5.7,14.6-7.8,24.5-6.4c99.5,34.3,199.3,68.9,299.5,103.8c5,5.7,7.1,13.2,6.4,22.5C870.8,426.9,772,721,671.9,1014.4
		C665.5,1020.1,657.3,1021.9,647.3,1019.7z M610.1,953.3v-2.1L348.9,339.9l-223.8-75l-1.1,2.1l261.1,612.4L610.1,953.3z
		 M653.7,923.4v-3.2l257.9-776.2L670.8,62.5L501.3,573.3l151.3,351.2L653.7,923.4z"/>
</g>
</svg>
